<svg height="512pt" viewBox="-60 0 512 512.10851" width="512pt" xmlns="http://www.w3.org/2000/svg"><path d="m162.253906 235.132812h68.265625v55.082032h-68.265625zm0 0" fill="#4e342e"/><path d="m51.320312 25.707031c0 9.425781-7.640624 17.066407-17.066406 17.066407-9.425781 0-17.070312-7.640626-17.070312-17.066407s7.644531-17.066406 17.070312-17.066406c9.425782 0 17.066406 7.640625 17.066406 17.066406zm0 0" fill="#ff9801"/><path d="m34.253906 119.574219h46.222656v102.398437h-46.222656c-14.140625 0-25.601562-11.460937-25.601562-25.601562v-51.199219c0-14.136719 11.460937-25.597656 25.601562-25.597656zm0 0" fill="#7f5b53"/><path d="m375.585938 25.707031c0 9.425781-7.640626 17.066407-17.066407 17.066407s-17.066406-7.640626-17.066406-17.066407 7.640625-17.066406 17.066406-17.066406 17.066407 7.640625 17.066407 17.066406zm0 0" fill="#ff9801"/><path d="m384.117188 145.171875v51.199219c0 14.140625-11.460938 25.601562-25.597657 25.601562h-42.753906v-102.398437h42.753906c14.136719 0 25.597657 11.460937 25.597657 25.597656zm0 0" fill="#4e342e"/><path d="m362.785156 145.171875v51.199219c0 14.140625-11.460937 25.601562-25.601562 25.601562h-21.417969v-102.398437h21.417969c14.140625 0 25.601562 11.460937 25.601562 25.597656zm0 0" fill="#795548"/><path d="m332.917969 145.171875v76.800781c0 14.136719-11.460938 25.601563-25.597657 25.601563h-221.867187c-14.140625 0-25.601563-11.464844-25.601563-25.601563v-76.800781c-.027343-71.277344 54.804688-130.570313 125.867188-136.105469 3.5-.257812 7.082031-.425781 10.667969-.425781 36.222656-.050781 70.980469 14.320313 96.59375 39.9375 25.617187 25.613281 39.984375 60.367187 39.9375 96.59375zm0 0" fill="#f57c00"/><path d="m311.585938 145.171875v76.800781c0 14.136719-11.460938 25.601563-25.601563 25.601563h-200.53125c-14.140625 0-25.601563-11.464844-25.601563-25.601563v-76.800781c-.027343-71.277344 54.804688-130.570313 125.867188-136.105469 71.097656 5.460938 125.972656 64.796875 125.867188 136.105469zm0 0" fill="#ff9801"/><path d="m290.253906 136.640625c0 47.101563-46.765625 59.730469-93.867187 59.730469-3.585938 0-7.167969-.082032-10.667969-.253906-43.265625-1.878907-83.199219-15.957032-83.199219-59.476563s39.933594-64.941406 83.199219-67.839844c3.5-.34375 7.082031-.429687 10.667969-.429687 47.101562 0 93.867187 21.164062 93.867187 68.269531zm0 0" fill="#bfa885"/><path d="m268.917969 136.640625c0 43.519531-39.933594 57.597656-83.199219 59.476563-43.265625-1.878907-83.199219-15.957032-83.199219-59.476563s39.933594-64.941406 83.199219-67.839844c43.265625 2.898438 83.199219 24.320313 83.199219 67.839844zm0 0" fill="#ffecb3"/><path d="m341.027344 304.917969-29.527344 76.796875c-2.519531 6.578125-8.832031 10.921875-15.871094 10.925781h-198.484375c-7.042969-.003906-13.355469-4.347656-15.875-10.925781l-29.523437-76.796875c-2.023438-5.242188-1.335938-11.140625 1.832031-15.777344 3.171875-4.636719 8.421875-7.417969 14.039063-7.433594h257.535156c5.617187.015625 10.867187 2.796875 14.039062 7.433594s3.855469 10.535156 1.835938 15.777344zm0 0" fill="#f57c00"/><path d="m319.691406 304.917969-29.523437 76.796875c-2.519531 6.578125-8.832031 10.921875-15.875 10.925781h-177.148438c-7.042969-.003906-13.355469-4.347656-15.875-10.925781l-29.523437-76.796875c-2.023438-5.242188-1.335938-11.140625 1.832031-15.777344 3.171875-4.636719 8.421875-7.417969 14.039063-7.433594h236.203124c5.617188.015625 10.867188 2.796875 14.039063 7.433594 3.167969 4.636719 3.855469 10.535156 1.832031 15.777344zm0 0" fill="#ff9801"/><path d="m157.984375 443.839844h12.800781v42.667968h-12.800781c-11.78125 0-21.332031-9.554687-21.332031-21.335937s9.550781-21.332031 21.332031-21.332031zm0 0" fill="#4e342e"/><path d="m234.785156 486.507812h-12.800781v-42.667968h12.800781c11.78125 0 21.332032 9.550781 21.332032 21.332031s-9.550782 21.335937-21.332032 21.335937zm0 0" fill="#4e342e"/><g fill="#ff9801"><path d="m42.777344 368.082031c0 9.425781-7.640625 17.066407-17.066406 17.066407-9.425782 0-17.066407-7.640626-17.066407-17.066407s7.640625-17.066406 17.066407-17.066406c9.425781 0 17.066406 7.640625 17.066406 17.066406zm0 0"/><path d="m76.910156 426.78125c0 9.425781-7.640625 17.066406-17.066406 17.066406s-17.066406-7.640625-17.066406-17.066406 7.640625-17.066406 17.066406-17.066406 17.066406 7.640625 17.066406 17.066406zm0 0"/><path d="m384.128906 368.082031c0 9.425781-7.644531 17.066407-17.066406 17.066407-9.425781 0-17.070312-7.640626-17.070312-17.066407s7.644531-17.066406 17.070312-17.066406c9.421875 0 17.066406 7.640625 17.066406 17.066406zm0 0"/><path d="m349.992188 426.78125c0 9.425781-7.640626 17.066406-17.066407 17.066406s-17.066406-7.640625-17.066406-17.066406 7.640625-17.066406 17.066406-17.066406 17.066407 7.640625 17.066407 17.066406zm0 0"/></g><path d="m223.4375 451.691406v26.964844c-.007812 14.9375-12.113281 27.046875-27.050781 27.050781-4.476563.050781-8.890625-1.066406-12.800781-3.242187-8.777344-4.703125-14.253907-13.851563-14.25-23.808594v-26.964844c-.003907-9.957031 5.472656-19.109375 14.25-23.808594 3.910156-2.179687 8.324218-3.296874 12.800781-3.242187 14.929687.023437 27.027343 12.121094 27.050781 27.050781zm0 0" fill="#37474f"/><path d="m197.835938 451.691406v26.964844c.003906 9.957031-5.472657 19.105469-14.25 23.808594-8.777344-4.703125-14.253907-13.851563-14.25-23.808594v-26.964844c-.003907-9.957031 5.472656-19.109375 14.25-23.808594 2.34375 1.210938 4.476562 2.796876 6.3125 4.691407 5.117187 5.039062 7.980468 11.933593 7.9375 19.117187zm0 0" fill="#607d8b"/><path d="m162.253906 136.640625c0 4.710937-3.824218 8.53125-8.535156 8.53125s-8.535156-3.820313-8.535156-8.53125c0-4.714844 3.824218-8.535156 8.535156-8.535156s8.535156 3.820312 8.535156 8.535156zm0 0"/><path d="m247.585938 136.640625c0 4.710937-3.820313 8.53125-8.535157 8.53125-4.710937 0-8.53125-3.820313-8.53125-8.53125 0-4.714844 3.820313-8.535156 8.53125-8.535156 4.714844 0 8.535157 3.820312 8.535157 8.535156zm0 0"/><path d="m298.785156 315.839844c0 4.710937-3.820312 8.53125-8.53125 8.53125-4.714844 0-8.535156-3.820313-8.535156-8.53125 0-4.714844 3.820312-8.535156 8.535156-8.535156 4.710938 0 8.53125 3.820312 8.53125 8.535156zm0 0"/><path d="m230.519531 349.972656c0 4.710938-3.820312 8.535156-8.535156 8.535156-4.710937 0-8.53125-3.824218-8.53125-8.535156 0-4.710937 3.820313-8.535156 8.53125-8.535156 4.714844 0 8.535156 3.824219 8.535156 8.535156zm0 0"/><path d="m367.050781 112.25v-62.515625c11.757813-4.15625 18.808594-16.175781 16.699219-28.464844-2.109375-12.289062-12.761719-21.269531-25.230469-21.269531s-23.125 8.980469-25.230469 21.269531c-2.109374 12.289063 4.941407 24.308594 16.695313 28.464844v61.304687h-12.757813c-15.71875-65.023437-73.921874-110.832031-140.820312-110.832031s-125.097656 45.808594-140.820312 110.832031h-12.800782v-61.304687c11.753906-4.15625 18.808594-16.175781 16.699219-28.464844-2.109375-12.289062-12.765625-21.269531-25.230469-21.269531-12.46875 0-23.125 8.980469-25.234375 21.269531-2.105469 12.289063 4.945313 24.308594 16.699219 28.464844v62.515625c-15.023438 3.878906-25.542969 17.40625-25.601562 32.921875v51.199219c0 18.851562 15.285156 34.136718 34.136718 34.136718h18.277344c3.878906 15.023438 17.402344 25.539063 32.921875 25.597657h68.265625v17.066406h-86.085938c-8.433593 0-16.324218 4.15625-21.101562 11.109375-4.773438 6.953125-5.816406 15.808594-2.789062 23.683594l11.945312 31.085937-13.40625 9.546875c-9.035156-7.714844-22.195312-8.199218-31.773438-1.167968-9.582031 7.03125-13.0625 19.734374-8.40625 30.667968s16.226563 17.222656 27.933594 15.191406l10.582032 16.65625c-5.726563 6.515626-7.761719 15.492188-5.394532 23.839844 2.367188 8.347656 8.808594 14.921875 17.101563 17.460938 2.441406.746094 4.976562 1.125 7.527343 1.125 9.773438.171875 18.789063-5.238282 23.238282-13.9375 4.449218-8.703125 3.554687-19.179688-2.300782-27.003906-5.859374-7.820313-15.660156-11.625-25.261718-9.804688l-10.609375-16.734375c5.226562-5.800781 7.398437-13.730469 5.863281-21.382813l11.238281-8.015624 11.253907 29.261718c3.839843 9.863282 13.320312 16.375 23.902343 16.417969h30.941407v68.265625c.042968 1.613281.554687 3.179688 1.46875 4.507812 3.820312 12.496094 15.332031 21.046876 28.398437 21.09375h9.011719c6.019531 10.554688 17.238281 17.070313 29.390625 17.070313 12.148437 0 23.367187-6.515625 29.386719-17.070313h9.011718c13.066406-.046874 24.578125-8.597656 28.398438-21.09375.914062-1.328124 1.425781-2.894531 1.46875-4.507812v-68.265625h30.941406c10.578125-.046875 20.050781-6.554687 23.894531-16.410156l11.253907-29.269531 11.238281 8.015624c-1.535157 7.652344.636719 15.582032 5.863281 21.382813l-10.660156 16.742187c-3.925782-.71875-7.96875-.488281-11.792969.675782-10.9375 3.289062-18.402344 13.398437-18.324219 24.824218.082032 11.421876 7.679688 21.429688 18.667969 24.566407 10.984375 3.140625 22.722656-1.339844 28.824219-10.996094 6.105468-9.660156 5.109375-22.183594-2.441406-30.757813l10.582031-16.65625c1.433593.253907 2.886719.386719 4.34375.390626 9.46875-.007813 18.160156-5.242188 22.597656-13.609376 5.707031-10.84375 2.929687-24.210937-6.625-31.886718-9.550781-7.671875-23.203125-7.5-32.5625.414062l-13.378906-9.546875 11.945312-31.097656c3.027344-7.867187 1.980469-16.722656-2.792969-23.671875-4.769531-6.949219-12.660156-11.105469-21.089843-11.109375h-86.085938v-17.066406h68.269531c15.515626-.058594 29.039063-10.574219 32.921876-25.597657h18.277343c18.851563 0 34.132813-15.285156 34.132813-34.136718v-51.199219c-.058594-15.515625-10.574219-29.042969-25.601563-32.921875zm-348.875 259.832031c-1.910156-3.59375-1.015625-8.039062 2.140625-10.613281 3.152344-2.574219 7.6875-2.5625 10.828125.03125 3.140625 2.589844 4.011719 7.039062 2.082031 10.625-1.929687 3.585938-6.125 5.308594-10.015624 4.113281-2.164063-.664062-3.972657-2.15625-5.035157-4.15625zm49.210938 50.6875c1.058593 2 1.28125 4.339844.613281 6.503907-.652344 2.164062-2.144531 3.976562-4.144531 5.035156-2.003907 1.058594-4.347657 1.28125-6.511719.613281-3.296875-1.011719-5.664062-3.910156-5.992188-7.34375-.328124-3.433594 1.445313-6.730469 4.488282-8.347656 1.238281-.65625 2.613281-.996094 4.011718-.992188.867188.003907 1.730469.132813 2.558594.386719 2.144532.664062 3.933594 2.15625 4.976563 4.144531zm273.066406 8.015625c-1.617187 3.042969-4.914063 4.816406-8.347656 4.488282-3.433594-.328126-6.332031-2.695313-7.34375-5.992188-1.132813-3.695312.359375-7.6875 3.636719-9.734375 3.273437-2.046875 7.515624-1.636719 10.34375.996094 2.824218 2.636719 3.527343 6.839843 1.710937 10.25zm24.097656-70.828125c.808594-.265625 1.652344-.40625 2.5-.417969 1.390625.003907 2.757813.34375 3.988281.996094 3.050782 1.617188 4.828126 4.914063 4.5 8.351563-.324218 3.4375-2.691406 6.339843-5.996093 7.351562-3.300781 1.015625-6.886719-.058593-9.085938-2.722656s-2.578125-6.386719-.957031-9.4375c1.058594-2.007813 2.882812-3.507813 5.058594-4.15625zm-6.03125-342.785156c4.710938 0 8.53125 3.820313 8.53125 8.535156 0 4.710938-3.820312 8.53125-8.53125 8.53125-4.714843 0-8.535156-3.820312-8.535156-8.53125 0-4.714843 3.820313-8.535156 8.535156-8.535156zm-324.265625 0c4.710938 0 8.53125 3.820313 8.53125 8.535156 0 4.710938-3.820312 8.53125-8.53125 8.53125-4.714844 0-8.535156-3.820312-8.535156-8.53125 0-4.714843 3.820312-8.535156 8.535156-8.535156zm-17.070312 179.199219v-51.199219c0-9.425781 7.644531-17.066406 17.070312-17.066406h17.066406v85.332031h-17.066406c-9.425781 0-17.070312-7.640625-17.070312-17.066406zm140.800781 281.601562c-7.066406 0-12.800781-5.730468-12.800781-12.800781s5.734375-12.800781 12.800781-12.800781h4.269531v25.601562zm38.402344 17.066406c-9.425781 0-17.066407-7.640624-17.066407-17.066406v-25.601562c0-9.425782 7.640626-17.066406 17.066407-17.066406s17.066406 7.640624 17.066406 17.066406v25.601562c0 9.425782-7.640625 17.066406-17.066406 17.066406zm38.398437-17.066406h-4.265625v-25.601562h4.265625c7.070313 0 12.800782 5.730468 12.800782 12.800781s-5.730469 12.800781-12.800782 12.800781zm12.800782-39.671875c-3.988282-1.945312-8.363282-2.96875-12.800782-2.996093h-9.011718c-6.019532-10.550782-17.238282-17.066407-29.386719-17.066407-12.152344 0-23.371094 6.515625-29.390625 17.066407h-9.011719c-4.4375.027343-8.8125 1.050781-12.800781 2.996093v-37.128906h102.402344zm84.582031-144.359375c1.617187 2.304688 1.964843 5.269532.929687 7.886719l-29.535156 76.800781c-1.28125 3.285156-4.441406 5.453125-7.96875 5.46875h-198.417969c-3.527343-.015625-6.691406-2.1875-7.96875-5.480468l-29.535156-76.796876c-1-2.621093-.648437-5.570312.941406-7.882812 1.589844-2.3125 4.214844-3.695312 7.019531-3.699219h257.503907c2.816406-.019531 5.453125 1.371094 7.03125 3.703125zm-110.183594-20.769531h-51.199219v-17.066406h51.199219zm85.335937-34.132813h-221.867187c-9.425781 0-17.066406-7.640624-17.066406-17.066406v-76.800781c0-70.691406 57.304687-128 128-128 70.691406 0 128 57.308594 128 128v76.800781c0 4.527344-1.800781 8.867188-5 12.066406-3.199219 3.203126-7.542969 5-12.066407 5zm68.265626-42.667968c0 9.425781-7.640626 17.066406-17.066407 17.066406h-17.066406v-85.332031h17.066406c9.425781 0 17.066407 7.640625 17.066407 17.066406zm0 0"/><path d="m196.386719 59.839844c-50.972657 0-102.402344 23.746094-102.402344 76.800781 0 44.023437 36.371094 68.265625 102.402344 68.265625s102.398437-24.242188 102.398437-68.265625c0-53.054687-51.429687-76.800781-102.398437-76.800781zm0 128c-56.628907 0-85.335938-17.230469-85.335938-51.199219 0-41.269531 42.855469-59.734375 85.335938-59.734375 42.476562 0 85.332031 18.464844 85.332031 59.734375 0 33.96875-28.707031 51.199219-85.332031 51.199219zm0 0"/><path d="m239.050781 324.371094h17.066407c4.714843 0 8.535156-3.820313 8.535156-8.53125 0-4.714844-3.820313-8.535156-8.535156-8.535156h-17.066407c-4.710937 0-8.53125 3.820312-8.53125 8.535156 0 4.710937 3.820313 8.53125 8.53125 8.53125zm0 0"/><path d="m247.585938 349.972656c0 4.710938 3.820312 8.535156 8.53125 8.535156h17.066406c4.714844 0 8.535156-3.824218 8.535156-8.535156 0-4.710937-3.820312-8.535156-8.535156-8.535156h-17.066406c-4.710938 0-8.53125 3.824219-8.53125 8.535156zm0 0"/><path d="m187.851562 332.90625h-21.035156l-14.503906-21.804688c-1.675781-2.234374-4.308594-3.554687-7.101562-3.554687-2.792969 0-5.425782 1.320313-7.101563 3.554687l-14.554687 21.804688h-21.035157c-4.714843 0-8.535156 3.820312-8.535156 8.53125 0 4.714844 3.820313 8.535156 8.535156 8.535156h25.597657c2.855468 0 5.519531-1.425781 7.101562-3.796875l9.964844-14.976562 9.96875 14.949219c1.578125 2.382812 4.242187 3.820312 7.101562 3.824218h25.597656c4.714844 0 8.535157-3.820312 8.535157-8.535156 0-4.710938-3.820313-8.53125-8.535157-8.53125zm0 0"/></svg>